{
  "accessors": [
    {
      "bufferView": 2,
      "componentType": 5126,
      "count": 1168,
      "max": [
        0.9436900019645691,
        1.8653899431228638,
        0.2078700065612793
      ],
      "min": [
        -0.9436900019645691,
        -1.9285399913787842,
        -1.0
      ],
      "type": "VEC3"
    },
    {
      "bufferView": 2,
      "byteOffset": 14016,
      "componentType": 5126,
      "count": 1168,
      "max": [
        0.9996509552001953,
        0.9977412819862366,
        0.9987265467643738
      ],
      "min": [
        -0.9996509552001953,
        -0.997227132320404,
        -0.23588994145393372
      ],
      "type": "VEC3"
    },
    {
      "bufferView": 1,
      "componentType": 5126,
      "count": 1168,
      "max": [
        0.5351300239562988,
        0.8064200282096863
      ],
      "min": [
        0.019460000097751617,
        0.34648001194000244
      ],
      "type": "VEC2"
    },
    {
      "bufferView": 0,
      "componentType": 5125,
      "count": 1758,
      "type": "SCALAR"
    },
    {
      "bufferView": 2,
      "byteOffset": 28032,
      "componentType": 5126,
      "count": 183,
      "max": [
        1.0,
        1.0,
        1.0
      ],
      "min": [
        -1.0,
        -1.0,
        -11.819279670715332
      ],
      "type": "VEC3"
    },
    {
      "bufferView": 2,
      "byteOffset": 30228,
      "componentType": 5126,
      "count": 183,
      "max": [
        1.0,
        1.0,
        0.9076717495918274
      ],
      "min": [
        -1.0,
        -1.0,
        -1.0
      ],
      "type": "VEC3"
    },
    {
      "bufferView": 1,
      "byteOffset": 9344,
      "componentType": 5126,
      "count": 183,
      "max": [
        0.4465300142765045,
        0.2973099946975708
      ],
      "min": [
        0.3392699956893921,
        0.1120000034570694
      ],
      "type": "VEC2"
    },
    {
      "bufferView": 0,
      "byteOffset": 7032,
      "componentType": 5125,
      "count": 456,
      "type": "SCALAR"
    },
    {
      "bufferView": 2,
      "byteOffset": 32424,
      "componentType": 5126,
      "count": 432,
      "max": [
        1.0,
        1.0,
        1.0
      ],
      "min": [
        -1.0,
        -1.0,
        -1.1556099653244019
      ],
      "type": "VEC3"
    },
    {
      "bufferView": 2,
      "byteOffset": 37608,
      "componentType": 5126,
      "count": 432,
      "max": [
        0.9914443492889404,
        0.9914443492889404,
        1.0
      ],
      "min": [
        -0.9914443492889404,
        -0.9914443492889404,
        -1.0
      ],
      "type": "VEC3"
    },
    {
      "bufferView": 1,
      "byteOffset": 10808,
      "componentType": 5126,
      "count": 432,
      "max": [
        0.1683499962091446,
        0.2959499955177307
      ],
      "min": [
        0.11395999789237976,
        0.1878100037574768
      ],
      "type": "VEC2"
    },
    {
      "bufferView": 0,
      "byteOffset": 8856,
      "componentType": 5125,
      "count": 708,
      "type": "SCALAR"
    },
    {
      "bufferView": 2,
      "byteOffset": 42792,
      "componentType": 5126,
      "count": 432,
      "max": [
        1.0,
        1.0,
        1.0
      ],
      "min": [
        -1.0,
        -1.0,
        -1.1556099653244019
      ],
      "type": "VEC3"
    },
    {
      "bufferView": 2,
      "byteOffset": 47976,
      "componentType": 5126,
      "count": 432,
      "max": [
        0.9914443492889404,
        0.9914443492889404,
        1.0
      ],
      "min": [
        -0.9914443492889404,
        -0.9914443492889404,
        -1.0
      ],
      "type": "VEC3"
    },
    {
      "bufferView": 1,
      "byteOffset": 14264,
      "componentType": 5126,
      "count": 432,
      "max": [
        0.1683499962091446,
        0.2959499955177307
      ],
      "min": [
        0.11395999789237976,
        0.1878100037574768
      ],
      "type": "VEC2"
    },
    {
      "bufferView": 0,
      "byteOffset": 11688,
      "componentType": 5125,
      "count": 708,
      "type": "SCALAR"
    },
    {
      "bufferView": 2,
      "byteOffset": 53160,
      "componentType": 5126,
      "count": 432,
      "max": [
        1.0,
        1.0,
        1.0
      ],
      "min": [
        -1.0,
        -1.0,
        -1.1556099653244019
      ],
      "type": "VEC3"
    },
    {
      "bufferView": 2,
      "byteOffset": 58344,
      "componentType": 5126,
      "count": 432,
      "max": [
        0.9914443492889404,
        0.9914443492889404,
        1.0
      ],
      "min": [
        -0.9914443492889404,
        -0.9914443492889404,
        -1.0
      ],
      "type": "VEC3"
    },
    {
      "bufferView": 1,
      "byteOffset": 17720,
      "componentType": 5126,
      "count": 432,
      "max": [
        0.1683499962091446,
        0.2959499955177307
      ],
      "min": [
        0.11395999789237976,
        0.1878100037574768
      ],
      "type": "VEC2"
    },
    {
      "bufferView": 0,
      "byteOffset": 14520,
      "componentType": 5125,
      "count": 708,
      "type": "SCALAR"
    },
    {
      "bufferView": 2,
      "byteOffset": 63528,
      "componentType": 5126,
      "count": 432,
      "max": [
        1.0,
        1.0,
        1.0
      ],
      "min": [
        -1.0,
        -1.0,
        -1.1556099653244019
      ],
      "type": "VEC3"
    },
    {
      "bufferView": 2,
      "byteOffset": 68712,
      "componentType": 5126,
      "count": 432,
      "max": [
        0.9914443492889404,
        0.9914443492889404,
        1.0
      ],
      "min": [
        -0.9914443492889404,
        -0.9914443492889404,
        -1.0
      ],
      "type": "VEC3"
    },
    {
      "bufferView": 1,
      "byteOffset": 21176,
      "componentType": 5126,
      "count": 432,
      "max": [
        0.1683499962091446,
        0.2959499955177307
      ],
      "min": [
        0.11395999789237976,
        0.1878100037574768
      ],
      "type": "VEC2"
    },
    {
      "bufferView": 0,
      "byteOffset": 17352,
      "componentType": 5125,
      "count": 708,
      "type": "SCALAR"
    },
    {
      "bufferView": 2,
      "byteOffset": 73896,
      "componentType": 5126,
      "count": 112,
      "max": [
        1.0,
        1.0,
        2.1005499362945557
      ],
      "min": [
        -1.0,
        -1.0,
        -1.0
      ],
      "type": "VEC3"
    },
    {
      "bufferView": 2,
      "byteOffset": 75240,
      "componentType": 5126,
      "count": 112,
      "max": [
        0.9238808751106262,
        0.9238808751106262,
        1.0
      ],
      "min": [
        -0.9238808751106262,
        -0.9238808751106262,
        -1.0
      ],
      "type": "VEC3"
    },
    {
      "bufferView": 0,
      "byteOffset": 20184,
      "componentType": 5125,
      "count": 228,
      "type": "SCALAR"
    }
  ],
  "asset": {
    "extras": {
      "author": "peewee.id (https://sketchfab.com/p2eweeworld)",
      "license": "CC-BY-4.0 (http://creativecommons.org/licenses/by/4.0/)",
      "source": "https://sketchfab.com/3d-models/car-lowpoly-f5839b637bb44177b7e44f7c99361bab",
      "title": "Car lowpoly"
    },
    "generator": "Sketchfab-12.67.0",
    "version": "2.0"
  },
  "bufferViews": [
    {
      "buffer": 0,
      "byteLength": 21096,
      "name": "floatBufferViews",
      "target": 34963
    },
    {
      "buffer": 0,
      "byteLength": 24632,
      "byteOffset": 21096,
      "byteStride": 8,
      "name": "floatBufferViews",
      "target": 34962
    },
    {
      "buffer": 0,
      "byteLength": 76584,
      "byteOffset": 45728,
      "byteStride": 12,
      "name": "floatBufferViews",
      "target": 34962
    }
  ],
  "buffers": [
    {
      "byteLength": 122312,
      "uri": "scene.bin"
    }
  ],
  "extensionsUsed": [
    "KHR_materials_unlit"
  ],
  "images": [
    {
      "uri": "textures/Material.003_baseColor.png"
    }
  ],
  "materials": [
    {
      "doubleSided": true,
      "extensions": {
        "KHR_materials_unlit": {}
      },
      "name": "Root",
      "pbrMetallicRoughness": {
        "metallicFactor": 0.0
      }
    },
    {
      "doubleSided": true,
      "extensions": {
        "KHR_materials_unlit": {}
      },
      "name": "Material.003",
      "pbrMetallicRoughness": {
        "baseColorTexture": {
          "index": 0
        },
        "metallicFactor": 0.0
      }
    },
    {
      "doubleSided": true,
      "extensions": {
        "KHR_materials_unlit": {}
      },
      "name": "Material.002",
      "pbrMetallicRoughness": {
        "baseColorTexture": {
          "index": 0
        },
        "metallicFactor": 0.0
      }
    },
    {
      "doubleSided": true,
      "extensions": {
        "KHR_materials_unlit": {}
      },
      "name": "Material.001",
      "pbrMetallicRoughness": {
        "baseColorTexture": {
          "index": 0
        },
        "metallicFactor": 0.0
      }
    }
  ],
  "meshes": [
    {
      "name": "Cube.001_0",
      "primitives": [
        {
          "attributes": {
            "NORMAL": 1,
            "POSITION": 0,
            "TEXCOORD_0": 2
          },
          "indices": 3,
          "material": 3,
          "mode": 4
        }
      ]
    },
    {
      "name": "Cube.002_0",
      "primitives": [
        {
          "attributes": {
            "NORMAL": 5,
            "POSITION": 4,
            "TEXCOORD_0": 6
          },
          "indices": 7,
          "material": 2,
          "mode": 4
        }
      ]
    },
    {
      "name": "Cylinder_0",
      "primitives": [
        {
          "attributes": {
            "NORMAL": 9,
            "POSITION": 8,
            "TEXCOORD_0": 10
          },
          "indices": 11,
          "material": 1,
          "mode": 4
        }
      ]
    },
    {
      "name": "Cylinder.001_0",
      "primitives": [
        {
          "attributes": {
            "NORMAL": 13,
            "POSITION": 12,
            "TEXCOORD_0": 14
          },
          "indices": 15,
          "material": 1,
          "mode": 4
        }
      ]
    },
    {
      "name": "Cylinder.002_0",
      "primitives": [
        {
          "attributes": {
            "NORMAL": 17,
            "POSITION": 16,
            "TEXCOORD_0": 18
          },
          "indices": 19,
          "material": 1,
          "mode": 4
        }
      ]
    },
    {
      "name": "Cylinder.003_0",
      "primitives": [
        {
          "attributes": {
            "NORMAL": 21,
            "POSITION": 20,
            "TEXCOORD_0": 22
          },
          "indices": 23,
          "material": 1,
          "mode": 4
        }
      ]
    },
    {
      "name": "Cylinder.004_0",
      "primitives": [
        {
          "attributes": {
            "NORMAL": 25,
            "POSITION": 24
          },
          "indices": 26,
          "material": 0,
          "mode": 4
        }
      ]
    }
  ],
  "nodes": [
    {
      "children": [
        1
      ],
      "matrix": [
        1.0,
        0.0,
        0.0,
        0.0,
        0.0,
        2.220446049250313e-16,
        -1.0,
        0.0,
        0.0,
        1.0,
        2.220446049250313e-16,
        0.0,
        0.0,
        0.0,
        0.0,
        1.0
      ],
      "name": "Sketchfab_model"
    },
    {
      "children": [
        2,
        4,
        6,
        8,
        10,
        12,
        14,
        16
      ],
      "name": "Root"
    },
    {
      "children": [
        3
      ],
      "matrix": [
        -0.29086000000000006,
        0.9551700000000001,
        -0.05519000000000001,
        0.0,
        -0.7711,
        -0.19988000000000003,
        0.6045200000000001,
        0.0,
        0.5663900000000001,
        0.21839000000000003,
        0.7946700000000001,
        0.0,
        4.076250000000001,
        1.00545,
        5.903860000000001,
        1.0
      ],
      "name": "Lamp"
    },
    {
      "name": "Lamp"
    },
    {
      "children": [
        5
      ],
      "matrix": [
        1.0,
        0.0,
        0.0,
        0.0,
        0.0,
        1.0,
        0.0,
        0.0,
        0.0,
        0.0,
        1.0,
        0.0,
        0.14812,
        -2.76905,
        -1.39791,
        1.0
      ],
      "name": "Cube.001"
    },
    {
      "mesh": 0,
      "name": "Cube.001_0"
    },
    {
      "children": [
        7
      ],
      "matrix": [
        0.6756900000000002,
        0.0,
        0.0,
        0.0,
        0.0,
        0.15640000000000004,
        0.0,
        0.0,
        0.0,
        0.0,
        0.029960000000000007,
        0.0,
        0.15082,
        -0.98988,
        -1.23758,
        1.0
      ],
      "name": "Cube.002"
    },
    {
      "mesh": 1,
      "name": "Cube.002_0"
    },
    {
      "children": [
        9
      ],
      "matrix": [
        -0.0,
        0.37117000000000006,
        0.0,
        0.0,
        0.0,
        0.0,
        0.37117000000000006,
        0.0,
        0.08744000000000002,
        0.0,
        -0.0,
        0.0,
        -0.8002900000000001,
        -1.70378,
        -2.19051,
        1.0
      ],
      "name": "Cylinder"
    },
    {
      "mesh": 2,
      "name": "Cylinder_0"
    },
    {
      "children": [
        11
      ],
      "matrix": [
        -0.0,
        0.37117000000000006,
        0.0,
        0.0,
        0.0,
        0.0,
        0.37117000000000006,
        0.0,
        0.08744000000000002,
        0.0,
        -0.0,
        0.0,
        -0.8002900000000001,
        -3.97316,
        -2.19051,
        1.0
      ],
      "name": "Cylinder.001"
    },
    {
      "mesh": 3,
      "name": "Cylinder.001_0"
    },
    {
      "children": [
        13
      ],
      "matrix": [
        0.0,
        -0.37117000000000006,
        0.0,
        0.0,
        -0.0,
        -0.0,
        0.37117000000000006,
        0.0,
        -0.08744000000000002,
        -0.0,
        -0.0,
        0.0,
        1.1153899999999999,
        -1.70378,
        -2.19051,
        1.0
      ],
      "name": "Cylinder.002"
    },
    {
      "mesh": 4,
      "name": "Cylinder.002_0"
    },
    {
      "children": [
        15
      ],
      "matrix": [
        0.0,
        -0.37117000000000006,
        0.0,
        0.0,
        -0.0,
        -0.0,
        0.37117000000000006,
        0.0,
        -0.08744000000000002,
        -0.0,
        -0.0,
        0.0,
        1.1153899999999999,
        -3.97316,
        -2.19051,
        1.0
      ],
      "name": "Cylinder.003"
    },
    {
      "mesh": 5,
      "name": "Cylinder.003_0"
    },
    {
      "children": [
        17
      ],
      "matrix": [
        2.83498,
        0.0,
        0.0,
        0.0,
        0.0,
        2.83498,
        0.0,
        0.0,
        0.0,
        0.0,
        0.10691,
        0.0,
        0.16637000000000002,
        -2.7631600000000005,
        -2.68254,
        1.0
      ],
      "name": "Cylinder.004"
    },
    {
      "mesh": 6,
      "name": "Cylinder.004_0"
    }
  ],
  "samplers": [
    {
      "magFilter": 9729,
      "minFilter": 9987,
      "wrapS": 10497,
      "wrapT": 10497
    }
  ],
  "scene": 0,
  "scenes": [
    {
      "name": "Sketchfab_Scene",
      "nodes": [
        0
      ]
    }
  ],
  "textures": [
    {
      "sampler": 0,
      "source": 0
    }
  ]
}
